<svg viewBox="0 0 143 143" xmlns="http://www.w3.org/2000/svg"><title>double links</title><g fill="none" fill-rule="evenodd"><circle fill="#8FCEFF" cx="71.5" cy="71.5" r="71.5"/><g stroke="#FFF" stroke-width="2" stroke-linecap="round"><path d="M61.799 65.151l2.843-2.843a5 5 0 0 0 0-7.071l-5.657-5.657a5 5 0 0 0-7.07 0L37.771 63.722a5 5 0 0 0 0 7.07l5.657 5.658a5 5 0 0 0 7.071 0l5.61-5.61"/><path d="M39.201 77.849l-2.843 2.843a5 5 0 0 0 0 7.071l5.657 5.657a5 5 0 0 0 7.07 0l14.143-14.142a5 5 0 0 0 0-7.07L57.57 66.55a5 5 0 0 0-7.071 0l-5.61 5.61"/></g><g stroke="#FFF" stroke-width="2" stroke-linecap="round"><path d="M100.799 65.151l2.843-2.843a5 5 0 0 0 0-7.071l-5.657-5.657a5 5 0 0 0-7.07 0L76.771 63.722a5 5 0 0 0 0 7.07l5.657 5.658a5 5 0 0 0 7.071 0l5.61-5.61"/><path d="M78.201 77.849l-2.843 2.843a5 5 0 0 0 0 7.071l5.657 5.657a5 5 0 0 0 7.07 0l14.143-14.142a5 5 0 0 0 0-7.07L96.57 66.55a5 5 0 0 0-7.071 0l-5.61 5.61"/></g></g></svg>