<svg xmlns="http://www.w3.org/2000/svg" xmlns:xlink="http://www.w3.org/1999/xlink" viewBox="0 0 70 70"><defs><circle id="a" cx="35" cy="35" r="35"/></defs><g fill="none" fill-rule="evenodd"><path d="M0 0h70v70H0z"/><mask id="b" fill="#fff"><use xlink:href="#a"/></mask><use fill="#959595" xlink:href="#a"/><path fill="#FFF" d="M74.381 22.385H48.3c-.692-2.574-2.065-3.869-4.12-3.884-2.055-.015-3.508 1.28-4.36 3.884-2.939.022-5.316.387-7.131 1.097-2.723 1.065-3.712 4.246-5.892 5.125-2.18.878-6.726.91-6.726 2.556 0 4.196 3.84 8.228 8.229 9.874 4.389 1.646 7.25.423 12.187 2.617 4.938 2.195 9.393 9.99 13.902 12.975 3.006 1.991 7.19 4.102 12.553 6.332l12.212-24.188-4.772-16.388z" mask="url(#b)"/><path fill="#373737" d="M20.273 32.916c.847-.34 1.27-.674 1.27-1 0-.326-.304-.868-.914-1.624-.437.262-.667.61-.691 1.042-.024.433.088.96.335 1.582z" mask="url(#b)"/><circle cx="33.287" cy="27.902" r="1" fill="#373737" mask="url(#b)"/></g></svg>