<svg xmlns="http://www.w3.org/2000/svg" viewBox="0 0 20 22"><g fill="none" fill-rule="evenodd"><path d="M-2-1h24v24H-2z"/><path fill="currentColor" fill-rule="nonzero" d="M15.795 7.721a1 1 0 1 1 1.41-1.418l2.504 1.972a1 1 0 0 1 .005 1.415l-2.505 2.027a1 1 0 0 1-1.418-1.41l.303-.307h-5.097A.996.996 0 0 1 10 9a1 1 0 0 1 .997-1h5.079l-.281-.279zM8 18v2.214c0 1.056-1.045 1.644-1.948 1.086L.896 18.11A1.988 1.988 0 0 1 0 16.504V1.496C0 1.176.096.9.254.685A.401.401 0 0 1 .313.582 1.5 1.5 0 0 1 1.5 0h11A1.5 1.5 0 0 1 14 1.496V4a1 1 0 0 1-2 0V2l-7.489-.004 2.593 1.603c.527.326.896.99.896 1.608V16h4v-2a1 1 0 1 1 2 0v2.504c0 .828-.673 1.496-1.5 1.496H8zM6.005 5.299L2 2.81v13.68l4.005 2.439V5.299z"/></g></svg>