<svg xmlns="http://www.w3.org/2000/svg" viewBox="0 0 20 18"><g fill="none" fill-rule="evenodd"><path d="M-2-3h24v24H-2z"/><path fill="currentColor" fill-rule="nonzero" d="M10.5 13v-1.002A2 2 0 0 1 12.498 10h2.004c1.104 0 1.998.894 1.998 1.998V13h2.501c.552 0 .999.444.999 1 0 .552-.446 1-.999 1H16.5v1.002A2 2 0 0 1 14.502 18h-2.004a1.998 1.998 0 0 1-1.998-1.998V15H.999A.997.997 0 0 1 0 14c0-.552.446-1 .999-1H10.5zm-7-11.002A2 2 0 0 1 5.498 0h2.004C8.606 0 9.5.894 9.5 1.998V3h9.501c.552 0 .999.444.999 1 0 .552-.446 1-.999 1H9.5v1.002A2 2 0 0 1 7.502 8H5.498A1.998 1.998 0 0 1 3.5 6.002V5H.999A.997.997 0 0 1 0 4c0-.552.446-1 .999-1H3.5V1.998zM5.5 2v4h2V2h-2zm7 10v4h2v-4h-2z"/></g></svg>