<svg xmlns="http://www.w3.org/2000/svg" xmlns:xlink="http://www.w3.org/1999/xlink" viewBox="0 0 14 15"><defs><path id="a" d="M1 5h2a1 1 0 0 1 1 1v8a1 1 0 0 1-1 1H1a1 1 0 0 1-1-1V6a1 1 0 0 1 1-1zm3 8.94V6.162L7.754.451A1 1 0 0 1 8.59 0h.415c.527 0 .954.427.954.954v4.023h2.971a1 1 0 0 1 .995 1.102l-.72 6.965a1 1 0 0 1-.995.897H4z"/></defs><g fill="none" fill-rule="evenodd"><use fill="currentColor" xlink:href="#a"/><path stroke="currentColor" stroke-width="2" d="M1 6v8h2V6H1zm4 6.94h7.21l.72-6.963H8.96V1h-.37L5 6.46v6.48z"/></g></svg>