<svg xmlns="http://www.w3.org/2000/svg" viewBox="0 0 22 14"><g fill="none" fill-rule="evenodd"><path d="M-1-5h24v24H-1z"/><path fill="currentColor" fill-rule="nonzero" d="M2 6.563c0 .968.892 1.75 2 1.75.552 0 1 .391 1 .874 0 .484-.448.876-1 .876-2.212 0-4-1.565-4-3.5V3.5C0 1.566 1.791 0 4.003 0h7.994C14.207 0 16 1.565 16 3.5v3.063c0 1.934-1.787 3.5-4 3.5h-2c-.552 0-1-.392-1-.876 0-.483.448-.874 1-.874h2c1.108 0 2-.782 2-1.75V3.5c0-.966-.896-1.749-2.003-1.749H4.003C2.895 1.75 2 2.533 2 3.5v3.063zm18 .874c0-.967-.894-1.75-1.998-1.75-.552 0-1-.391-1-.875 0-.483.448-.875 1-.875 2.209 0 3.998 1.566 3.998 3.5V10.5c0 1.934-1.791 3.5-4.003 3.5h-7.994C7.793 14 6 12.435 6 10.5V7.438c0-1.932 1.79-3.5 3.997-3.5H12c.552 0 1 .392 1 .876 0 .483-.448.875-1 .875H9.997C8.895 5.688 8 6.47 8 7.437V10.5c0 .966.896 1.749 2.003 1.749h7.994c1.108 0 2.003-.783 2.003-1.75V7.438z"/></g></svg>