<svg viewBox="0 0 182 182" xmlns="http://www.w3.org/2000/svg" xmlns:xlink="http://www.w3.org/1999/xlink"><title>Oval 5 + Oval 5 + Oval 5 + onboarding_illustrations + hair + body + face + left hand + righr hand Mask</title><defs><circle id="a" cx="91" cy="91" r="91"/></defs><g fill="none" fill-rule="evenodd"><mask id="b" fill="#fff"><use xlink:href="#a"/></mask><use fill="#8FCEFF" xlink:href="#a"/><path d="M123 53c-.667-18-8-27-22-27-18 0-20 13-22 19s-7 20-9 23-9 12-22 12-15 0-19 4-3 23-5 27c-1.333 2.667-6 5.667-14 9 2 3.333 4.667 5.333 8 6 1.95.39 11.617.39 29 0l57-28c4.667-4 7.333-7 8-9 .667-2 1-4.333 1-7V53h10z" fill="#093251" mask="url(#b)"/><rect fill="#2173BB" mask="url(#b)" x="47" y="98" width="98" height="90" rx="10"/><path d="M120 53h-16c0 4.667-.333 7.333-1 8-.667.667-2 1.667-4 3 0-4.333-1.333-6.333-4-6-4 .5-4 3-4 5 0 1.333.667 3 2 5v14c-.667 3.333-2 6.333-4 9-3 4-6 7-9 7h-6c2.667 14 10 21 22 21s19.333-7 22-21h-12c-2-2.667-3-5.333-3-8s1-4.667 3-6l13-3V66h4l-3-13zM67 183v-44c6.003-1.339 9.67-3.339 11-6 1-2 1-6.292 1-11 0-1-1-2-2-2H67v-10c-.667-2-1.333-2.667-2-2-1 1-.871 11.108-2 16-2 8.667-4.667 18.333-8 29h-8v30h20z" fill="#FFF" mask="url(#b)"/><path fill="#7AC5FF" mask="url(#b)" d="M67 101h3v19h-3z"/><circle stroke="#7AC5FF" stroke-width="3" fill-opacity=".625" fill="#5FCEF9" mask="url(#b)" cx="68" cy="90" r="11"/><path fill="#FFF" mask="url(#b)" d="M125 154h20v22h-20z"/></g></svg>