<svg viewBox="0 0 182 182" xmlns="http://www.w3.org/2000/svg" xmlns:xlink="http://www.w3.org/1999/xlink"><title>onboarding_illustrations + hhand + Group 4 + hhand Mask</title><defs><circle id="a" cx="91" cy="91" r="91"/></defs><g fill="none" fill-rule="evenodd"><mask id="b" fill="#fff"><use xlink:href="#a"/></mask><use fill="#8FCEFF" xlink:href="#a"/><g mask="url(#b)" stroke-linecap="round" stroke="#2173BB" stroke-width="2"><path d="M127.755 118.107l2.843-2.844a5 5 0 0 0 0-7.07l-5.657-5.657a5 5 0 0 0-7.07 0l-14.143 14.142a5 5 0 0 0 0 7.07l5.657 5.658a5 5 0 0 0 7.07 0l5.611-5.61"/><path d="M105.157 130.805l-2.843 2.843a5 5 0 0 0 0 7.071l5.657 5.657a5 5 0 0 0 7.07 0l14.143-14.142a5 5 0 0 0 0-7.071l-5.657-5.657a5 5 0 0 0-7.071 0l-5.61 5.61"/></g><g mask="url(#b)"><path fill="#093251" d="M-3 97l39 2V62l-39 3z"/><path d="M36 94.102c5.333-1 11-.833 17 .5 5.213 1.159 5 1.296 11 4.398 4 2.068 11 3.102 21 3.102 10.667 2 17.333 3.334 20 4 2.667.667 7.667 2 15 4 2.667-2.666 3.333-4.666 2-6-2-2-11-6-14-7s-13-4-16-5-11.333-6-10-8c1.333-2 5.89-4.65 10-4 4 .633 9.333 2.3 16 5 2.667 4.667 5 8.667 7 12 2 3.334 4 5 6 5 .667-3.333.667-5.833 0-7.5-1-2.5-3-7.5-6-13.5-2-4-8-7.034-18-9.102h6c6.46.974 11.127 1.64 14 2 8 1 7 2 10 2 3.61 0 8.21.886 6-4-.902-1.994-8.235-4.327-22-7-11.989-3.304-19.656-4.637-23-4-14 2.667-25.333 4.7-34 6.102l-18 1v26z" fill="#FFF"/><path d="M80 59c-4.423-2.91-7.09-3.91-8-3-1.016 1.016-13.584 6.39-19 10-1.416.944-5.641 1.66-7 2-2.667.667-.667 1.667 6 3l28-12z" fill="#FFF"/><path d="M102 63c-11.333-4.667-18-7-20-7s-10.667 3.667-26 11l46-4z" fill="#FFF"/></g></g></svg>