<svg viewBox="0 0 182 182" xmlns="http://www.w3.org/2000/svg" xmlns:xlink="http://www.w3.org/1999/xlink"><title>hair + body + Rectangle Copy 2 + Rectangle Copy + Rectangle + ear + face + left hand + right hand Mask</title><defs><circle id="a" cx="91" cy="91" r="91"/></defs><g fill="none" fill-rule="evenodd"><mask id="b" fill="#fff"><use xlink:href="#a"/></mask><use fill="#8FCEFF" xlink:href="#a"/><path d="M125.822 133.943c29.386-2.1 44.779-11.895 46.178-29.386-2.099-20.99-20.99-16.792-32.535-31.486-8.396-16.792 2.1-34.633-17.841-45.128-17.842-6.297-33.584 3.148-40.93 12.594C72.996 48.233 67.765 60.387 65 77l60.822 56.943z" fill="#093251" mask="url(#b)"/><path d="M38 160c-3.346-12.27-7.68-23.604-13-34h16l-3-21c5.207-11.495 9.54-18.828 13-22 8-7.333 20.667-11.333 38-12l21 7c11.333 11.333 17.667 21.667 19 31 .85 5.954-1 18-3 23s-11 24-11 30c0 8.088 1.667 15.754 5 23l-80-6c.32-6.604-.346-12.937-2-19z" fill="#2173BB" mask="url(#b)"/><rect fill="#51B8ED" mask="url(#b)" x="51" y="104" width="51" height="69" rx="5"/><rect fill="#85D6FF" mask="url(#b)" x="45" y="101" width="63" height="69" rx="5"/><rect fill="#B6EBFF" mask="url(#b)" x="41" y="98" width="71" height="69" rx="5"/><g mask="url(#b)"><path d="M65 122h24v24H65z"/><path d="M71.042 141.044l4.474-2.912a2.771 2.771 0 0 1 2.968 0L83 141.076v-14.993H71.002l.04 14.96zM71.002 124h11.996c1.106 0 2.002.935 2.002 2.083v16.663c0 1.15-.76 1.589-1.697.979l-5.879-3.827a.844.844 0 0 0-.848 0l-5.88 3.827c-.936.61-1.696.169-1.696-.979v-16.663c0-1.15.895-2.083 2.002-2.083z" fill="#2173BB" fill-rule="nonzero" opacity=".6"/></g><path d="M96 50c-.667-2-1.667-3-3-3-2 0-3 2-3 4 0 1.333.333 3.667 1 7l5-8z" fill="#FFF" mask="url(#b)"/><path d="M104.415 84.312c6.692-.136 15.233-12.149 15.233-24.885 0-12.737-6.644-21.238-15.233-21.238-8.59 0-14.043 8.275-14.043 21.011 0 12.737 7.35 25.248 14.043 25.112z" fill="#FFF" mask="url(#b)" transform="rotate(28 105.01 61.251)"/><path d="M41 126H31v-15c0-1.333 6-7.333 18-18l1 5h10c0 5.333-1 9-3 11s-4.333 3.333-7 4h-9v13zm81 0v-25l-9-8v5H98c1.333 4.667 3.667 8.333 7 11 2.667 1.333 5 2.333 7 3v14h10z" fill="#FFF" mask="url(#b)"/></g></svg>