<svg viewBox="0 0 182 182" xmlns="http://www.w3.org/2000/svg" xmlns:xlink="http://www.w3.org/1999/xlink"><title>Group</title><defs><circle id="a" cx="91" cy="91" r="91"/></defs><g fill="none" fill-rule="evenodd"><mask id="b" fill="#fff"><use xlink:href="#a"/></mask><use fill="#8FCEFF" xlink:href="#a"/><path d="M84 134v-6C60.667 99.333 49 77 49 61c0-21.31 9.667-35.977 29-44-15.333 14.667-22 29.667-20 45 1.99 15.262 10.99 36.928 27 65v7h-1z" fill="#B6EBFF" mask="url(#b)"/><path d="M88.395 14c-10.666 1.333-18 14.333-22 39-2.156 13.298 4.51 37.965 20 74v7h2v-7c-6.666-32-9.666-55.333-9-70 1.191-26.198 4.191-40.531 9-43z" fill="#B6EBFF" mask="url(#b)"/><path fill="#B6EBFF" mask="url(#b)" d="M5 117l10-4 138 38L9 173z"/><path d="M15 113c-2.398.935-3.065 1.935-2 3 1 1 41 15 41 20 0 4-20 4-21 9-.655 3.273 6.345 8.606 21 16l-33 8-25-50 19-6z" fill="#093251" mask="url(#b)"/><path fill="#E4F8FF" mask="url(#b)" d="M30 162l148-27-42 47-82 2z"/><path d="M114 14c-10.667 1.333-18 14.333-22 39-2.156 13.298 4.51 37.965 20 74v7h2v-7c-6.667-32-9.667-55.333-9-70 1.19-26.198 4.19-40.531 9-43z" fill="#B6EBFF" mask="url(#b)" transform="matrix(-1 0 0 1 205.605 0)"/><path d="M131 134v-6c-23.333-28.667-35-51-35-67 0-21.31 9.667-35.977 29-44-15.333 14.667-22 29.667-20 45 1.99 15.262 10.99 36.928 27 65v7h-1z" fill="#B6EBFF" mask="url(#b)" transform="matrix(-1 0 0 1 228 0)"/><path d="M91 140c.5 0 .374-.251 0-1-1-2-2.5-.75-3.5-.75-1.165 0-2 1-2 3s-1 2-2 3c-.667.667-.667 2.333 0 5L85 152l3-6c1.667-4 2.667-6 3-6z" fill="#093251" mask="url(#b)"/><path d="M89.066 145v-1h2v-4c-.355-.667-.866-1-1.533-1-.667 0-1.156.333-1.467 1v3c-.088 1.824-.088 2.824 0 3 .354.709 1-1 1-1z" fill="#FFF" mask="url(#b)"/><ellipse fill="#FFE200" mask="url(#b)" cx="88.5" cy="153.5" rx="3.5" ry="8.5"/><path fill="#8FCEFF" mask="url(#b)" d="M85 155h16v17H85z"/><path fill="#093251" mask="url(#b)" d="M77 155h8v17h-8zm0 17H58l19-4v4z"/><path d="M84.5 134.5l-7 21m19-21l4 21m-16-21v20" stroke="#093251" stroke-linecap="square" mask="url(#b)"/></g></svg>