<svg xmlns="http://www.w3.org/2000/svg" viewBox="0 0 20 20"><g fill="none"><path d="M-2-2h24v24H-2z"/><path fill="currentColor" d="M10 20C4.477 20 0 15.523 0 10S4.477 0 10 0s10 4.477 10 10-4.477 10-10 10zm0-2a8 8 0 1 0 0-16 8 8 0 0 0 0 16zm0-12a2 2 0 0 0-2 2 1 1 0 1 1-2 0 4 4 0 0 1 4-4c2.232 0 4.006 1.605 4.006 3.798 0 1.198-.42 1.932-1.319 2.705-.092.08-1.131.924-1.17.955-.417.333-.504.483-.504.981a1 1 0 1 1-2 0c0-1.17.4-1.86 1.255-2.543-.034.026 1.04-.844 1.115-.909.494-.425.623-.65.623-1.189C12.006 6.757 11.17 6 10 6zm0 10a1 1 0 1 1 0-2 1 1 0 0 1 0 2z"/></g></svg>