<svg viewBox="0 0 143 143" xmlns="http://www.w3.org/2000/svg"><title>titanic</title><g fill="none" fill-rule="evenodd"><circle fill="#8FCEFF" cx="71.5" cy="71.5" r="71.5"/><g transform="rotate(-46 97.03 11.994)"><path fill="#FFF" d="M35 0h14v22H35zM18 0h14v22H18zM1 0h14v22H1z"/><path fill="#B6EBFF" d="M1 0h14v8H1zm17 0h14v8H18zm17 0h14v8H35zM0 20h54v12H0z"/><path d="M1 31h90v11.763c-3.391 3.946-20.046 13.794-22.175 16.877-.675.819-1.012 2.272-1.012 4.36H32.974L1 31z" fill="#2173BB"/><circle fill="#B6EBFF" cx="59.5" cy="37.5" r="1.5"/><circle fill="#2173BB" cx="20.5" cy="25.5" r="1.5"/><circle fill="#B6EBFF" cx="66.5" cy="37.5" r="1.5"/><circle fill="#B6EBFF" cx="73.5" cy="37.5" r="1.5"/></g><path fill="#8FCEFF" d="M16 93h100v12H16z"/><path d="M104.218 91.003l-.002-.003a7.396 7.396 0 0 1-4.85 1.796A7.397 7.397 0 0 1 94.521 91l-.003.003-.002-.003a7.396 7.396 0 0 1-4.85 1.796A7.397 7.397 0 0 1 84.821 91l-.01.013L84.8 91a7.396 7.396 0 0 1-4.85 1.796 7.396 7.396 0 0 1-4.805-1.762l-.03-.034a7.64 7.64 0 0 1-.004.005 7.523 7.523 0 0 1-.006-.005l-.032.037a7.396 7.396 0 0 1-4.807 1.76A7.397 7.397 0 0 1 65.421 91l-.003.003-.002-.003a7.396 7.396 0 0 1-4.85 1.796A7.397 7.397 0 0 1 55.721 91l-.003.003-.002-.003a7.396 7.396 0 0 1-4.85 1.796A7.397 7.397 0 0 1 46.021 91l-.01.013-.012-.013a7.396 7.396 0 0 1-4.85 1.796A7.397 7.397 0 0 1 36.306 91l-.003.003L36.3 91a7.396 7.396 0 0 1-4.85 1.796A7.397 7.397 0 0 1 26.606 91l-.003.003L26.6 91a7.396 7.396 0 0 1-4.85 1.796A7.397 7.397 0 0 1 16.906 91L15.6 92.516a9.396 9.396 0 0 0 6.15 2.28c1.74 0 3.408-.471 4.853-1.339a9.396 9.396 0 0 0 4.847 1.34c1.74 0 3.408-.472 4.853-1.34a9.396 9.396 0 0 0 4.847 1.34 9.406 9.406 0 0 0 4.861-1.345 9.396 9.396 0 0 0 4.855 1.344c1.74 0 3.408-.471 4.853-1.339a9.396 9.396 0 0 0 4.847 1.34c1.74 0 3.408-.472 4.853-1.34a9.396 9.396 0 0 0 4.847 1.34c1.737 0 3.402-.47 4.845-1.335a9.396 9.396 0 0 0 4.839 1.334 9.406 9.406 0 0 0 4.861-1.344 9.396 9.396 0 0 0 4.855 1.344c1.74 0 3.408-.471 4.853-1.339a9.396 9.396 0 0 0 4.847 1.34c1.74 0 3.408-.472 4.853-1.34a9.396 9.396 0 0 0 4.847 1.34 9.395 9.395 0 0 0 6.156-2.282L113.916 91a7.396 7.396 0 0 1-4.85 1.796A7.397 7.397 0 0 1 104.221 91l-.003.003z" fill="#2173BB" fill-rule="nonzero"/><path d="M94.22 106.457a9.407 9.407 0 0 1-4.854 1.34 9.396 9.396 0 0 1-4.847-1.34 9.407 9.407 0 0 1-4.853 1.34 9.396 9.396 0 0 1-4.855-1.345 9.406 9.406 0 0 1-4.861 1.344 9.396 9.396 0 0 1-4.839-1.334 9.407 9.407 0 0 1-4.845 1.334 9.396 9.396 0 0 1-6.15-2.28L55.421 104a7.397 7.397 0 0 0 4.845 1.796c1.79 0 3.476-.63 4.807-1.759l.032-.037.006.005.005-.005.029.034a7.396 7.396 0 0 0 4.805 1.762A7.396 7.396 0 0 0 74.8 104l.01.013.011-.013a7.397 7.397 0 0 0 4.845 1.796 7.396 7.396 0 0 0 4.85-1.796l.002.003.003-.003a7.397 7.397 0 0 0 4.845 1.796 7.396 7.396 0 0 0 4.85-1.796l.002.003.003-.003a7.397 7.397 0 0 0 4.845 1.796 7.396 7.396 0 0 0 4.85-1.796l1.306 1.515a9.395 9.395 0 0 1-6.156 2.281 9.396 9.396 0 0 1-4.847-1.339z" fill="#2173BB"/></g></svg>