<?xml version="1.0" encoding="UTF-8"?><!DOCTYPE svg PUBLIC "-//W3C//DTD SVG 1.1//EN" "http://www.w3.org/Graphics/SVG/1.1/DTD/svg11.dtd"><svg xmlns="http://www.w3.org/2000/svg" xmlns:xlink="http://www.w3.org/1999/xlink"><defs><circle id="a" cx="35" cy="35" r="35"/><path id="a" d="M1 5h2a1 1 0 0 1 1 1v8a1 1 0 0 1-1 1H1a1 1 0 0 1-1-1V6a1 1 0 0 1 1-1zm3 8.94V6.162L7.754.451A1 1 0 0 1 8.59 0h.415c.527 0 .954.427.954.954v4.023h2.971a1 1 0 0 1 .995 1.102l-.72 6.965a1 1 0 0 1-.995.897H4z"/><circle id="a" cx="91" cy="91" r="91"/><circle id="a" cx="91" cy="91" r="91"/><circle id="a" cx="91" cy="91" r="91"/><circle id="a" cx="91" cy="91" r="91"/></defs><symbol id="account" viewBox="0 0 20 20"><g fill="none" fill-rule="evenodd"><path fill="currentColor" fill-rule="nonzero" d="M10 0C4.48 0 0 4.48 0 10s4.48 10 10 10 10-4.48 10-10S15.52 0 10 0zm0 3c1.66 0 3 1.34 3 3s-1.34 3-3 3-3-1.34-3-3 1.34-3 3-3zm0 14.2a7.2 7.2 0 0 1-6-3.22c.03-1.99 4-3.08 6-3.08 1.99 0 5.97 1.09 6 3.08a7.2 7.2 0 0 1-6 3.22z"/><path d="M-2-2h24v24H-2z"/></g></symbol><symbol id="arrow-back" viewBox="0 0 16 16"><g fill="none" fill-rule="evenodd"><path d="M-4-4h24v24H-4z"/><path fill="currentColor" d="M16 7H3.8l5.6-5.6L8 0 0 8l8 8 1.4-1.4L3.8 9H16z"/></g></symbol><symbol id="arrow-details" viewBox="0 0 8 13"><g fill="none" fill-rule="evenodd"><path fill="currentColor" fill-rule="nonzero" d="M.59 11.34l4.58-4.59L.59 2.16 2 .75l6 6-6 6z"/><path d="M-8-5h24v24H-8z"/></g></symbol><symbol id="arrow-more--popup" viewBox="0 0 12 8"><g fill="none" fill-rule="evenodd"><path d="M-6-8h24v24H-6z"/><path fill="currentColor" d="M10.6.6L6 5.2 1.4.6 0 2l6 6 6-6z"/></g></symbol><symbol id="close" viewBox="0 0 14 14"><g fill="none" fill-rule="evenodd"><path fill="currentColor" fill-rule="nonzero" d="M14 1.41L12.59 0 7 5.59 1.41 0 0 1.41 5.59 7 0 12.59 1.41 14 7 8.41 12.59 14 14 12.59 8.41 7z"/><path d="M-5-5h24v24H-5z"/></g></symbol><symbol id="double-links" viewBox="0 0 143 143"><title>double links</title><g fill="none" fill-rule="evenodd"><circle fill="#8FCEFF" cx="71.5" cy="71.5" r="71.5"/><g stroke="#FFF" stroke-width="2" stroke-linecap="round"><path d="M61.799 65.151l2.843-2.843a5 5 0 0 0 0-7.071l-5.657-5.657a5 5 0 0 0-7.07 0L37.771 63.722a5 5 0 0 0 0 7.07l5.657 5.658a5 5 0 0 0 7.071 0l5.61-5.61"/><path d="M39.201 77.849l-2.843 2.843a5 5 0 0 0 0 7.071l5.657 5.657a5 5 0 0 0 7.07 0l14.143-14.142a5 5 0 0 0 0-7.07L57.57 66.55a5 5 0 0 0-7.071 0l-5.61 5.61"/></g><g stroke="#FFF" stroke-width="2" stroke-linecap="round"><path d="M100.799 65.151l2.843-2.843a5 5 0 0 0 0-7.071l-5.657-5.657a5 5 0 0 0-7.07 0L76.771 63.722a5 5 0 0 0 0 7.07l5.657 5.658a5 5 0 0 0 7.071 0l5.61-5.61"/><path d="M78.201 77.849l-2.843 2.843a5 5 0 0 0 0 7.071l5.657 5.657a5 5 0 0 0 7.07 0l14.143-14.142a5 5 0 0 0 0-7.07L96.57 66.55a5 5 0 0 0-7.071 0l-5.61 5.61"/></g></g></symbol><symbol id="dropdown" viewBox="0 0 10 5"><g fill="none" fill-rule="evenodd"><path fill="currentColor" fill-rule="nonzero" d="M0 0l5 5 5-5z"/><path d="M-7-10h24v24H-7z"/></g></symbol><symbol id="edit" viewBox="0 0 16 16"><g fill="none" fill-rule="evenodd"><path fill="currentColor" fill-rule="nonzero" d="M.5 12.375V15.5h3.125l9.217-9.217-3.125-3.125L.5 12.375zm14.758-8.508a.83.83 0 0 0 0-1.175l-1.95-1.95a.83.83 0 0 0-1.175 0l-1.525 1.525 3.125 3.125 1.525-1.525z"/><path d="M-2-2h20v20H-2z"/></g></symbol><symbol id="empty-profile" viewBox="0 0 70 70"><g fill="none" fill-rule="evenodd"><path d="M0 0h70v70H0z"/><mask id="b" fill="#fff"><use xlink:href="#a"/></mask><use fill="#959595" xlink:href="#a"/><path fill="#FFF" d="M74.381 22.385H48.3c-.692-2.574-2.065-3.869-4.12-3.884-2.055-.015-3.508 1.28-4.36 3.884-2.939.022-5.316.387-7.131 1.097-2.723 1.065-3.712 4.246-5.892 5.125-2.18.878-6.726.91-6.726 2.556 0 4.196 3.84 8.228 8.229 9.874 4.389 1.646 7.25.423 12.187 2.617 4.938 2.195 9.393 9.99 13.902 12.975 3.006 1.991 7.19 4.102 12.553 6.332l12.212-24.188-4.772-16.388z" mask="url(#b)"/><path fill="#373737" d="M20.273 32.916c.847-.34 1.27-.674 1.27-1 0-.326-.304-.868-.914-1.624-.437.262-.667.61-.691 1.042-.024.433.088.96.335 1.582z" mask="url(#b)"/><circle cx="33.287" cy="27.902" r="1" fill="#373737" mask="url(#b)"/></g></symbol><symbol id="exit" viewBox="0 0 20 22"><g fill="none" fill-rule="evenodd"><path d="M-2-1h24v24H-2z"/><path fill="currentColor" fill-rule="nonzero" d="M15.795 7.721a1 1 0 1 1 1.41-1.418l2.504 1.972a1 1 0 0 1 .005 1.415l-2.505 2.027a1 1 0 0 1-1.418-1.41l.303-.307h-5.097A.996.996 0 0 1 10 9a1 1 0 0 1 .997-1h5.079l-.281-.279zM8 18v2.214c0 1.056-1.045 1.644-1.948 1.086L.896 18.11A1.988 1.988 0 0 1 0 16.504V1.496C0 1.176.096.9.254.685A.401.401 0 0 1 .313.582 1.5 1.5 0 0 1 1.5 0h11A1.5 1.5 0 0 1 14 1.496V4a1 1 0 0 1-2 0V2l-7.489-.004 2.593 1.603c.527.326.896.99.896 1.608V16h4v-2a1 1 0 1 1 2 0v2.504c0 .828-.673 1.496-1.5 1.496H8zM6.005 5.299L2 2.81v13.68l4.005 2.439V5.299z"/></g></symbol><symbol id="filter" viewBox="0 0 20 18"><g fill="none" fill-rule="evenodd"><path d="M-2-3h24v24H-2z"/><path fill="currentColor" fill-rule="nonzero" d="M10.5 13v-1.002A2 2 0 0 1 12.498 10h2.004c1.104 0 1.998.894 1.998 1.998V13h2.501c.552 0 .999.444.999 1 0 .552-.446 1-.999 1H16.5v1.002A2 2 0 0 1 14.502 18h-2.004a1.998 1.998 0 0 1-1.998-1.998V15H.999A.997.997 0 0 1 0 14c0-.552.446-1 .999-1H10.5zm-7-11.002A2 2 0 0 1 5.498 0h2.004C8.606 0 9.5.894 9.5 1.998V3h9.501c.552 0 .999.444.999 1 0 .552-.446 1-.999 1H9.5v1.002A2 2 0 0 1 7.502 8H5.498A1.998 1.998 0 0 1 3.5 6.002V5H.999A.997.997 0 0 1 0 4c0-.552.446-1 .999-1H3.5V1.998zM5.5 2v4h2V2h-2zm7 10v4h2v-4h-2z"/></g></symbol><symbol id="flash" viewBox="0 0 16 20"><g fill="none" fill-rule="evenodd"><path d="M-4-2h24v24H-4z"/><path fill="currentColor" fill-rule="nonzero" d="M9 4l-5.688 6.489h2.766c.53 0 .922.439.922.976v4.74l5.704-6.694H9.926c-.533 0-.927-.44-.926-.977V4zm1.886 3.556h4.07c1.063 0 1.365.662.67 1.483L6.995 19.251c-1.04 1.228-1.881.915-1.881-.71v-6.097h-4.07c-1.063 0-1.365-.662-.67-1.483L9.005.749c1.04-1.228 1.881-.915 1.881.71v6.097z"/></g></symbol><symbol id="home" viewBox="0 0 20 17"><g fill="none" fill-rule="evenodd"><path fill="currentColor" fill-rule="nonzero" d="M8 17v-6h4v6h5V9h3L10 0 0 9h3v8z"/><path d="M-2-3h24v24H-2z"/></g></symbol><symbol id="iceberg" viewBox="0 0 86 90"><g fill="none" fill-rule="evenodd"><path fill="#07F" d="M8.39 29.326H43V90L0 37.695z"/><path fill="#0065D9" d="M77.61 29.326H43V90l43-52.305z"/><path fill="#5FCEF9" d="M8 30h70L47.728 0 34.659 14.396l-8.363-4.798z"/></g></symbol><symbol id="like-big" viewBox="0 0 22 21"><g fill="none" fill-rule="evenodd"><path d="M-1-1h24v24H-1z"/><path stroke="currentColor" stroke-width="2" d="M2 8h4a1 1 0 0 1 1 1v10a1 1 0 0 1-1 1H2a1 1 0 0 1-1-1V9a1 1 0 0 1 1-1zm5 11l.133-8.362 5.1-9.126A1 1 0 0 1 13.107 1h.734a1 1 0 0 1 1 1v5.536h4.979a1 1 0 0 1 .986 1.165l-1.585 9.464a1 1 0 0 1-.986.835H7z"/></g></symbol><symbol id="like-filled" viewBox="0 0 22 21"><g fill="none" fill-rule="evenodd"><path d="M-1-1h24v24H-1z"/><path fill="currentColor" stroke="currentColor" stroke-width="2" d="M2 8h4a1 1 0 0 1 1 1v10a1 1 0 0 1-1 1H2a1 1 0 0 1-1-1V9a1 1 0 0 1 1-1zm5 11l.133-8.362 5.1-9.126A1 1 0 0 1 13.107 1h.734a1 1 0 0 1 1 1v5.536h4.979a1 1 0 0 1 .986 1.165l-1.585 9.464a1 1 0 0 1-.986.835H7z"/></g></symbol><symbol id="like-small" viewBox="0 0 14 15"><g fill="none" fill-rule="evenodd"><use fill="currentColor" xlink:href="#a"/><path stroke="currentColor" stroke-width="2" d="M1 6v8h2V6H1zm4 6.94h7.21l.72-6.963H8.96V1h-.37L5 6.46v6.48z"/></g></symbol><symbol id="link" viewBox="0 0 22 14"><g fill="none" fill-rule="evenodd"><path d="M-1-5h24v24H-1z"/><path fill="currentColor" fill-rule="nonzero" d="M2 6.563c0 .968.892 1.75 2 1.75.552 0 1 .391 1 .874 0 .484-.448.876-1 .876-2.212 0-4-1.565-4-3.5V3.5C0 1.566 1.791 0 4.003 0h7.994C14.207 0 16 1.565 16 3.5v3.063c0 1.934-1.787 3.5-4 3.5h-2c-.552 0-1-.392-1-.876 0-.483.448-.874 1-.874h2c1.108 0 2-.782 2-1.75V3.5c0-.966-.896-1.749-2.003-1.749H4.003C2.895 1.75 2 2.533 2 3.5v3.063zm18 .874c0-.967-.894-1.75-1.998-1.75-.552 0-1-.391-1-.875 0-.483.448-.875 1-.875 2.209 0 3.998 1.566 3.998 3.5V10.5c0 1.934-1.791 3.5-4.003 3.5h-7.994C7.793 14 6 12.435 6 10.5V7.438c0-1.932 1.79-3.5 3.997-3.5H12c.552 0 1 .392 1 .876 0 .483-.448.875-1 .875H9.997C8.895 5.688 8 6.47 8 7.437V10.5c0 .966.896 1.749 2.003 1.749h7.994c1.108 0 2.003-.783 2.003-1.75V7.438z"/></g></symbol><symbol id="lock" viewBox="0 0 16 19"><g fill="none" fill-rule="evenodd" transform="translate(-4 -2)"><path d="M0 0h24v24H0z"/><rect width="14" height="14" x="5" y="3" stroke="currentColor" stroke-width="2" rx="2"/><rect width="11" height="1" x="6.5" y="19.5" stroke="currentColor" rx=".5"/></g></symbol><symbol id="more-vert" viewBox="0 0 4 16"><g fill="none" fill-rule="evenodd"><path d="M-10-4h24v24h-24z"/><path fill="currentColor" fill-rule="nonzero" d="M2 4c1.1 0 2-.9 2-2s-.9-2-2-2-2 .9-2 2 .9 2 2 2zm0 2C.9 6 0 6.9 0 8s.9 2 2 2 2-.9 2-2-.9-2-2-2zm0 6c-1.1 0-2 .9-2 2s.9 2 2 2 2-.9 2-2-.9-2-2-2z"/></g></symbol><symbol id="onboard1" viewBox="0 0 182 182"><title>Oval 5 + Oval 5 + Oval 5 + onboarding_illustrations + hair + body + face + left hand + righr hand Mask</title><g fill="none" fill-rule="evenodd"><mask id="b" fill="#fff"><use xlink:href="#a"/></mask><use fill="#8FCEFF" xlink:href="#a"/><path d="M123 53c-.667-18-8-27-22-27-18 0-20 13-22 19s-7 20-9 23-9 12-22 12-15 0-19 4-3 23-5 27c-1.333 2.667-6 5.667-14 9 2 3.333 4.667 5.333 8 6 1.95.39 11.617.39 29 0l57-28c4.667-4 7.333-7 8-9 .667-2 1-4.333 1-7V53h10z" fill="#093251" mask="url(#b)"/><rect fill="#2173BB" mask="url(#b)" x="47" y="98" width="98" height="90" rx="10"/><path d="M120 53h-16c0 4.667-.333 7.333-1 8-.667.667-2 1.667-4 3 0-4.333-1.333-6.333-4-6-4 .5-4 3-4 5 0 1.333.667 3 2 5v14c-.667 3.333-2 6.333-4 9-3 4-6 7-9 7h-6c2.667 14 10 21 22 21s19.333-7 22-21h-12c-2-2.667-3-5.333-3-8s1-4.667 3-6l13-3V66h4l-3-13zM67 183v-44c6.003-1.339 9.67-3.339 11-6 1-2 1-6.292 1-11 0-1-1-2-2-2H67v-10c-.667-2-1.333-2.667-2-2-1 1-.871 11.108-2 16-2 8.667-4.667 18.333-8 29h-8v30h20z" fill="#FFF" mask="url(#b)"/><path fill="#7AC5FF" mask="url(#b)" d="M67 101h3v19h-3z"/><circle stroke="#7AC5FF" stroke-width="3" fill-opacity=".625" fill="#5FCEF9" mask="url(#b)" cx="68" cy="90" r="11"/><path fill="#FFF" mask="url(#b)" d="M125 154h20v22h-20z"/></g></symbol><symbol id="onboard2" viewBox="0 0 182 182"><title>hair + body + Rectangle Copy 2 + Rectangle Copy + Rectangle + ear + face + left hand + right hand Mask</title><g fill="none" fill-rule="evenodd"><mask id="b" fill="#fff"><use xlink:href="#a"/></mask><use fill="#8FCEFF" xlink:href="#a"/><path d="M125.822 133.943c29.386-2.1 44.779-11.895 46.178-29.386-2.099-20.99-20.99-16.792-32.535-31.486-8.396-16.792 2.1-34.633-17.841-45.128-17.842-6.297-33.584 3.148-40.93 12.594C72.996 48.233 67.765 60.387 65 77l60.822 56.943z" fill="#093251" mask="url(#b)"/><path d="M38 160c-3.346-12.27-7.68-23.604-13-34h16l-3-21c5.207-11.495 9.54-18.828 13-22 8-7.333 20.667-11.333 38-12l21 7c11.333 11.333 17.667 21.667 19 31 .85 5.954-1 18-3 23s-11 24-11 30c0 8.088 1.667 15.754 5 23l-80-6c.32-6.604-.346-12.937-2-19z" fill="#2173BB" mask="url(#b)"/><rect fill="#51B8ED" mask="url(#b)" x="51" y="104" width="51" height="69" rx="5"/><rect fill="#85D6FF" mask="url(#b)" x="45" y="101" width="63" height="69" rx="5"/><rect fill="#B6EBFF" mask="url(#b)" x="41" y="98" width="71" height="69" rx="5"/><g mask="url(#b)"><path d="M65 122h24v24H65z"/><path d="M71.042 141.044l4.474-2.912a2.771 2.771 0 0 1 2.968 0L83 141.076v-14.993H71.002l.04 14.96zM71.002 124h11.996c1.106 0 2.002.935 2.002 2.083v16.663c0 1.15-.76 1.589-1.697.979l-5.879-3.827a.844.844 0 0 0-.848 0l-5.88 3.827c-.936.61-1.696.169-1.696-.979v-16.663c0-1.15.895-2.083 2.002-2.083z" fill="#2173BB" fill-rule="nonzero" opacity=".6"/></g><path d="M96 50c-.667-2-1.667-3-3-3-2 0-3 2-3 4 0 1.333.333 3.667 1 7l5-8z" fill="#FFF" mask="url(#b)"/><path d="M104.415 84.312c6.692-.136 15.233-12.149 15.233-24.885 0-12.737-6.644-21.238-15.233-21.238-8.59 0-14.043 8.275-14.043 21.011 0 12.737 7.35 25.248 14.043 25.112z" fill="#FFF" mask="url(#b)" transform="rotate(28 105.01 61.251)"/><path d="M41 126H31v-15c0-1.333 6-7.333 18-18l1 5h10c0 5.333-1 9-3 11s-4.333 3.333-7 4h-9v13zm81 0v-25l-9-8v5H98c1.333 4.667 3.667 8.333 7 11 2.667 1.333 5 2.333 7 3v14h10z" fill="#FFF" mask="url(#b)"/></g></symbol><symbol id="onboard3" viewBox="0 0 182 182"><title>onboarding_illustrations + hhand + Group 4 + hhand Mask</title><g fill="none" fill-rule="evenodd"><mask id="b" fill="#fff"><use xlink:href="#a"/></mask><use fill="#8FCEFF" xlink:href="#a"/><g mask="url(#b)" stroke-linecap="round" stroke="#2173BB" stroke-width="2"><path d="M127.755 118.107l2.843-2.844a5 5 0 0 0 0-7.07l-5.657-5.657a5 5 0 0 0-7.07 0l-14.143 14.142a5 5 0 0 0 0 7.07l5.657 5.658a5 5 0 0 0 7.07 0l5.611-5.61"/><path d="M105.157 130.805l-2.843 2.843a5 5 0 0 0 0 7.071l5.657 5.657a5 5 0 0 0 7.07 0l14.143-14.142a5 5 0 0 0 0-7.071l-5.657-5.657a5 5 0 0 0-7.071 0l-5.61 5.61"/></g><g mask="url(#b)"><path fill="#093251" d="M-3 97l39 2V62l-39 3z"/><path d="M36 94.102c5.333-1 11-.833 17 .5 5.213 1.159 5 1.296 11 4.398 4 2.068 11 3.102 21 3.102 10.667 2 17.333 3.334 20 4 2.667.667 7.667 2 15 4 2.667-2.666 3.333-4.666 2-6-2-2-11-6-14-7s-13-4-16-5-11.333-6-10-8c1.333-2 5.89-4.65 10-4 4 .633 9.333 2.3 16 5 2.667 4.667 5 8.667 7 12 2 3.334 4 5 6 5 .667-3.333.667-5.833 0-7.5-1-2.5-3-7.5-6-13.5-2-4-8-7.034-18-9.102h6c6.46.974 11.127 1.64 14 2 8 1 7 2 10 2 3.61 0 8.21.886 6-4-.902-1.994-8.235-4.327-22-7-11.989-3.304-19.656-4.637-23-4-14 2.667-25.333 4.7-34 6.102l-18 1v26z" fill="#FFF"/><path d="M80 59c-4.423-2.91-7.09-3.91-8-3-1.016 1.016-13.584 6.39-19 10-1.416.944-5.641 1.66-7 2-2.667.667-.667 1.667 6 3l28-12z" fill="#FFF"/><path d="M102 63c-11.333-4.667-18-7-20-7s-10.667 3.667-26 11l46-4z" fill="#FFF"/></g></g></symbol><symbol id="onboard4" viewBox="0 0 182 182"><title>Group</title><g fill="none" fill-rule="evenodd"><mask id="b" fill="#fff"><use xlink:href="#a"/></mask><use fill="#8FCEFF" xlink:href="#a"/><path d="M84 134v-6C60.667 99.333 49 77 49 61c0-21.31 9.667-35.977 29-44-15.333 14.667-22 29.667-20 45 1.99 15.262 10.99 36.928 27 65v7h-1z" fill="#B6EBFF" mask="url(#b)"/><path d="M88.395 14c-10.666 1.333-18 14.333-22 39-2.156 13.298 4.51 37.965 20 74v7h2v-7c-6.666-32-9.666-55.333-9-70 1.191-26.198 4.191-40.531 9-43z" fill="#B6EBFF" mask="url(#b)"/><path fill="#B6EBFF" mask="url(#b)" d="M5 117l10-4 138 38L9 173z"/><path d="M15 113c-2.398.935-3.065 1.935-2 3 1 1 41 15 41 20 0 4-20 4-21 9-.655 3.273 6.345 8.606 21 16l-33 8-25-50 19-6z" fill="#093251" mask="url(#b)"/><path fill="#E4F8FF" mask="url(#b)" d="M30 162l148-27-42 47-82 2z"/><path d="M114 14c-10.667 1.333-18 14.333-22 39-2.156 13.298 4.51 37.965 20 74v7h2v-7c-6.667-32-9.667-55.333-9-70 1.19-26.198 4.19-40.531 9-43z" fill="#B6EBFF" mask="url(#b)" transform="matrix(-1 0 0 1 205.605 0)"/><path d="M131 134v-6c-23.333-28.667-35-51-35-67 0-21.31 9.667-35.977 29-44-15.333 14.667-22 29.667-20 45 1.99 15.262 10.99 36.928 27 65v7h-1z" fill="#B6EBFF" mask="url(#b)" transform="matrix(-1 0 0 1 228 0)"/><path d="M91 140c.5 0 .374-.251 0-1-1-2-2.5-.75-3.5-.75-1.165 0-2 1-2 3s-1 2-2 3c-.667.667-.667 2.333 0 5L85 152l3-6c1.667-4 2.667-6 3-6z" fill="#093251" mask="url(#b)"/><path d="M89.066 145v-1h2v-4c-.355-.667-.866-1-1.533-1-.667 0-1.156.333-1.467 1v3c-.088 1.824-.088 2.824 0 3 .354.709 1-1 1-1z" fill="#FFF" mask="url(#b)"/><ellipse fill="#FFE200" mask="url(#b)" cx="88.5" cy="153.5" rx="3.5" ry="8.5"/><path fill="#8FCEFF" mask="url(#b)" d="M85 155h16v17H85z"/><path fill="#093251" mask="url(#b)" d="M77 155h8v17h-8zm0 17H58l19-4v4z"/><path d="M84.5 134.5l-7 21m19-21l4 21m-16-21v20" stroke="#093251" stroke-linecap="square" mask="url(#b)"/></g></symbol><symbol id="picture" viewBox="0 0 18 18"><g fill="none" fill-rule="evenodd"><path fill="currentColor" fill-rule="nonzero" d="M18 16V2c0-1.1-.9-2-2-2H2C.9 0 0 .9 0 2v14c0 1.1.9 2 2 2h14c1.1 0 2-.9 2-2zM5.5 10.5L8 13.51 11.5 9l4.5 6H2l3.5-4.5z"/><path d="M-3-3h24v24H-3z"/></g></symbol><symbol id="plus" viewBox="0 0 14 14"><g fill="none" fill-rule="evenodd"><path d="M-5-5h24v24H-5z"/><path fill="currentColor" d="M8 6V0H6v6H0v2h6v6h2V8h6V6H8z"/></g></symbol><symbol id="question" viewBox="0 0 20 20"><g fill="none"><path d="M-2-2h24v24H-2z"/><path fill="currentColor" d="M10 20C4.477 20 0 15.523 0 10S4.477 0 10 0s10 4.477 10 10-4.477 10-10 10zm0-2a8 8 0 1 0 0-16 8 8 0 0 0 0 16zm0-12a2 2 0 0 0-2 2 1 1 0 1 1-2 0 4 4 0 0 1 4-4c2.232 0 4.006 1.605 4.006 3.798 0 1.198-.42 1.932-1.319 2.705-.092.08-1.131.924-1.17.955-.417.333-.504.483-.504.981a1 1 0 1 1-2 0c0-1.17.4-1.86 1.255-2.543-.034.026 1.04-.844 1.115-.909.494-.425.623-.65.623-1.189C12.006 6.757 11.17 6 10 6zm0 10a1 1 0 1 1 0-2 1 1 0 0 1 0 2z"/></g></symbol><symbol id="save-big" viewBox="0 0 16 20"><g fill="none" fill-rule="evenodd"><path d="M-4-2h24v24H-4z"/><path fill="currentColor" fill-rule="nonzero" d="M2.042 17.044l4.474-2.912a2.771 2.771 0 0 1 2.968 0L14 17.076V2.083H2.002l.04 14.96zM2.002 0h11.996C15.104 0 16 .935 16 2.083v16.663c0 1.15-.76 1.589-1.697.979l-5.879-3.827a.844.844 0 0 0-.848 0l-5.88 3.827C.76 20.335 0 19.894 0 18.746V2.083C0 .933.895 0 2.002 0z"/></g></symbol><symbol id="save-small" viewBox="0 0 11 14"><path fill="currentColor" d="M1.376 0h8.248C10.384 0 11 .655 11 1.458v11.664c0 .806-.522 1.112-1.166.685L5.792 11.13a.571.571 0 0 0-.584 0l-4.042 2.678C.522 14.234 0 13.926 0 13.122V1.458C0 .653.615 0 1.376 0z"/></symbol><symbol id="search" viewBox="0 0 24 24"><g fill="none" fill-rule="evenodd"><path fill="currentColor" fill-rule="nonzero" d="M15.5 14h-.79l-.28-.27A6.471 6.471 0 0 0 16 9.5 6.5 6.5 0 1 0 9.5 16c1.61 0 3.09-.59 4.23-1.57l.27.28v.79l5 4.99L20.49 19l-4.99-5zm-6 0C7.01 14 5 11.99 5 9.5S7.01 5 9.5 5 14 7.01 14 9.5 11.99 14 9.5 14z"/><path d="M0 0h24v24H0z"/></g></symbol><symbol id="settings" viewBox="0 0 20 20"><g fill="none" fill-rule="evenodd"><path d="M-2-2h24v24H-2z"/><path fill="currentColor" fill-rule="nonzero" d="M17.43 10.98c.04-.32.07-.64.07-.98 0-.34-.03-.66-.07-.98l2.11-1.65c.19-.15.24-.42.12-.64l-2-3.46c-.12-.22-.39-.3-.61-.22l-2.49 1c-.52-.4-1.08-.73-1.69-.98L12.49.42A.488.488 0 0 0 12 0H8c-.25 0-.46.18-.49.42l-.38 2.65c-.61.25-1.17.59-1.69.98l-2.49-1c-.23-.09-.49 0-.61.22l-2 3.46c-.13.22-.07.49.12.64l2.11 1.65c-.04.32-.07.65-.07.98 0 .33.03.66.07.98L.46 12.63c-.19.15-.24.42-.12.64l2 3.46c.12.22.39.3.61.22l2.49-1c.52.4 1.08.73 1.69.98l.38 2.65c.03.24.24.42.49.42h4c.25 0 .46-.18.49-.42l.38-2.65c.61-.25 1.17-.59 1.69-.98l2.49 1c.23.09.49 0 .61-.22l2-3.46c.12-.22.07-.49-.12-.64l-2.11-1.65zM10 13.5c-1.93 0-3.5-1.57-3.5-3.5S8.07 6.5 10 6.5s3.5 1.57 3.5 3.5-1.57 3.5-3.5 3.5z"/></g></symbol><symbol id="share" viewBox="0 0 18 20"><g fill="none" fill-rule="evenodd"><path d="M-3-2h24v24H-3z"/><path fill="currentColor" fill-rule="nonzero" d="M15 14.08c-.76 0-1.44.3-1.96.77L5.91 10.7c.05-.23.09-.46.09-.7 0-.24-.04-.47-.09-.7l7.05-4.11c.54.5 1.25.81 2.04.81 1.66 0 3-1.34 3-3s-1.34-3-3-3-3 1.34-3 3c0 .24.04.47.09.7L5.04 7.81C4.5 7.31 3.79 7 3 7c-1.66 0-3 1.34-3 3s1.34 3 3 3c.79 0 1.5-.31 2.04-.81l7.12 4.16c-.05.21-.08.43-.08.65 0 1.61 1.31 2.92 2.92 2.92 1.61 0 2.92-1.31 2.92-2.92 0-1.61-1.31-2.92-2.92-2.92z"/></g></symbol><symbol id="themes" viewBox="0 0 20 20"><g fill="none" fill-rule="evenodd"><path d="M-2-2h24v24H-2z"/><path fill="currentColor" fill-rule="nonzero" d="M.425 6.17L8.611.418c.795-.559 1.983-.559 2.778 0l8.186 5.75a1.002 1.002 0 0 1 0 1.638l-8.185 5.77c-.795.56-1.985.56-2.78 0L.424 7.806a1.001 1.001 0 0 1 .001-1.638zm16.842 6.87s-.043-.02-.316-.21c-.453-.316-.574-.966-.257-1.415.318-.45.92-.524 1.407-.212.29.186 1.285.868 1.475 1.028.563.475.567 1.23 0 1.625l-8.19 5.727c-.797.556-1.987.556-2.783 0L.41 13.856c-.567-.396-.53-1.18.001-1.625.197-.164 1.238-.862 1.52-1.058a1.005 1.005 0 0 1 1.393.242.989.989 0 0 1-.244 1.384l-.359.25 7.033 4.91c.105.073.373.072.478 0l7.034-4.918zM10.24 2.058c-.105-.074-.375-.074-.48 0L2.735 6.992l7.026 4.947c.105.074.373.074.478 0l7.018-4.946-7.017-4.936z"/></g></symbol><symbol id="titanic" viewBox="0 0 143 143"><title>titanic</title><g fill="none" fill-rule="evenodd"><circle fill="#8FCEFF" cx="71.5" cy="71.5" r="71.5"/><g transform="rotate(-46 97.03 11.994)"><path fill="#FFF" d="M35 0h14v22H35zM18 0h14v22H18zM1 0h14v22H1z"/><path fill="#B6EBFF" d="M1 0h14v8H1zm17 0h14v8H18zm17 0h14v8H35zM0 20h54v12H0z"/><path d="M1 31h90v11.763c-3.391 3.946-20.046 13.794-22.175 16.877-.675.819-1.012 2.272-1.012 4.36H32.974L1 31z" fill="#2173BB"/><circle fill="#B6EBFF" cx="59.5" cy="37.5" r="1.5"/><circle fill="#2173BB" cx="20.5" cy="25.5" r="1.5"/><circle fill="#B6EBFF" cx="66.5" cy="37.5" r="1.5"/><circle fill="#B6EBFF" cx="73.5" cy="37.5" r="1.5"/></g><path fill="#8FCEFF" d="M16 93h100v12H16z"/><path d="M104.218 91.003l-.002-.003a7.396 7.396 0 0 1-4.85 1.796A7.397 7.397 0 0 1 94.521 91l-.003.003-.002-.003a7.396 7.396 0 0 1-4.85 1.796A7.397 7.397 0 0 1 84.821 91l-.01.013L84.8 91a7.396 7.396 0 0 1-4.85 1.796 7.396 7.396 0 0 1-4.805-1.762l-.03-.034a7.64 7.64 0 0 1-.004.005 7.523 7.523 0 0 1-.006-.005l-.032.037a7.396 7.396 0 0 1-4.807 1.76A7.397 7.397 0 0 1 65.421 91l-.003.003-.002-.003a7.396 7.396 0 0 1-4.85 1.796A7.397 7.397 0 0 1 55.721 91l-.003.003-.002-.003a7.396 7.396 0 0 1-4.85 1.796A7.397 7.397 0 0 1 46.021 91l-.01.013-.012-.013a7.396 7.396 0 0 1-4.85 1.796A7.397 7.397 0 0 1 36.306 91l-.003.003L36.3 91a7.396 7.396 0 0 1-4.85 1.796A7.397 7.397 0 0 1 26.606 91l-.003.003L26.6 91a7.396 7.396 0 0 1-4.85 1.796A7.397 7.397 0 0 1 16.906 91L15.6 92.516a9.396 9.396 0 0 0 6.15 2.28c1.74 0 3.408-.471 4.853-1.339a9.396 9.396 0 0 0 4.847 1.34c1.74 0 3.408-.472 4.853-1.34a9.396 9.396 0 0 0 4.847 1.34 9.406 9.406 0 0 0 4.861-1.345 9.396 9.396 0 0 0 4.855 1.344c1.74 0 3.408-.471 4.853-1.339a9.396 9.396 0 0 0 4.847 1.34c1.74 0 3.408-.472 4.853-1.34a9.396 9.396 0 0 0 4.847 1.34c1.737 0 3.402-.47 4.845-1.335a9.396 9.396 0 0 0 4.839 1.334 9.406 9.406 0 0 0 4.861-1.344 9.396 9.396 0 0 0 4.855 1.344c1.74 0 3.408-.471 4.853-1.339a9.396 9.396 0 0 0 4.847 1.34c1.74 0 3.408-.472 4.853-1.34a9.396 9.396 0 0 0 4.847 1.34 9.395 9.395 0 0 0 6.156-2.282L113.916 91a7.396 7.396 0 0 1-4.85 1.796A7.397 7.397 0 0 1 104.221 91l-.003.003z" fill="#2173BB" fill-rule="nonzero"/><path d="M94.22 106.457a9.407 9.407 0 0 1-4.854 1.34 9.396 9.396 0 0 1-4.847-1.34 9.407 9.407 0 0 1-4.853 1.34 9.396 9.396 0 0 1-4.855-1.345 9.406 9.406 0 0 1-4.861 1.344 9.396 9.396 0 0 1-4.839-1.334 9.407 9.407 0 0 1-4.845 1.334 9.396 9.396 0 0 1-6.15-2.28L55.421 104a7.397 7.397 0 0 0 4.845 1.796c1.79 0 3.476-.63 4.807-1.759l.032-.037.006.005.005-.005.029.034a7.396 7.396 0 0 0 4.805 1.762A7.396 7.396 0 0 0 74.8 104l.01.013.011-.013a7.397 7.397 0 0 0 4.845 1.796 7.396 7.396 0 0 0 4.85-1.796l.002.003.003-.003a7.397 7.397 0 0 0 4.845 1.796 7.396 7.396 0 0 0 4.85-1.796l.002.003.003-.003a7.397 7.397 0 0 0 4.845 1.796 7.396 7.396 0 0 0 4.85-1.796l1.306 1.515a9.395 9.395 0 0 1-6.156 2.281 9.396 9.396 0 0 1-4.847-1.339z" fill="#2173BB"/></g></symbol></svg>