<?xml version="1.0" encoding="UTF-8"?><!DOCTYPE svg PUBLIC "-//W3C//DTD SVG 1.1//EN" "http://www.w3.org/Graphics/SVG/1.1/DTD/svg11.dtd"><svg xmlns="http://www.w3.org/2000/svg" xmlns:xlink="http://www.w3.org/1999/xlink"><defs><rect id="a" width="14" height="2" x="5" y="5" rx="1"/><rect id="b" width="10" height="2" x="7" y="2" rx="1"/><path id="a" d="M1 5h2a1 1 0 0 1 1 1v8a1 1 0 0 1-1 1H1a1 1 0 0 1-1-1V6a1 1 0 0 1 1-1zm3 8.94V6.162L7.754.451A1 1 0 0 1 8.59 0h.415c.527 0 .954.427.954.954v4.023h2.971a1 1 0 0 1 .995 1.102l-.72 6.965a1 1 0 0 1-.995.897H4z"/></defs><symbol id="archive" viewBox="0 0 20 19"><g fill="none" fill-rule="evenodd"><path d="M-2-2h24v24H-2z"/><g transform="translate(-2 -2)"><use fill="#D8D8D8" xlink:href="#a"/><rect width="13" height="1" x="5.5" y="5.5" stroke="#000" rx=".5"/></g><g transform="translate(-2 -2)"><use fill="curentColor" xlink:href="#b"/><rect width="9" height="1" x="7.5" y="2.5" stroke="#000" rx=".5"/></g><path stroke="#000" stroke-width="2" d="M2.198 7h15.604a1 1 0 0 1 .984 1.179l-1.637 9a1 1 0 0 1-.984.821H3.835a1 1 0 0 1-.984-.821l-1.637-9A1 1 0 0 1 2.198 7z"/></g></symbol><symbol id="arrow-left" viewBox="0 0 16 16"><g fill="none" fill-rule="evenodd"><path d="M-4-4h24v24H-4z"/><path fill="curentColor" d="M16 7H3.8l5.6-5.6L8 0 0 8l8 8 1.4-1.4L3.8 9H16z"/></g></symbol><symbol id="close" viewBox="0 0 14 14"><g fill="none" fill-rule="evenodd"><path fill="#000" fill-rule="nonzero" d="M14 1.41L12.59 0 7 5.59 1.41 0 0 1.41 5.59 7 0 12.59 1.41 14 7 8.41 12.59 14 14 12.59 8.41 7z"/><path d="M-5-5h24v24H-5z"/></g></symbol><symbol id="like-big" viewBox="0 0 22 21"><g fill="none" fill-rule="evenodd"><path d="M-1-1h24v24H-1z"/><path stroke="#FFF" stroke-width="2" d="M2 8h4a1 1 0 0 1 1 1v10a1 1 0 0 1-1 1H2a1 1 0 0 1-1-1V9a1 1 0 0 1 1-1zm5 11l.133-8.362 5.1-9.126A1 1 0 0 1 13.107 1h.734a1 1 0 0 1 1 1v5.536h4.979a1 1 0 0 1 .986 1.165l-1.585 9.464a1 1 0 0 1-.986.835H7z"/></g></symbol><symbol id="like-small" viewBox="0 0 14 15"><g fill="none" fill-rule="evenodd"><use fill="#BCBCBC" xlink:href="#a"/><path stroke="#BCBCBC" stroke-width="2" d="M1 6v8h2V6H1zm4 6.94h7.21l.72-6.963H8.96V1h-.37L5 6.46v6.48z"/></g></symbol><symbol id="link" viewBox="0 0 22 14"><g fill="none" fill-rule="evenodd"><path d="M-1-5h24v24H-1z"/><path fill="#FFF" fill-rule="nonzero" d="M2 6.563c0 .968.892 1.75 2 1.75.552 0 1 .391 1 .874 0 .484-.448.876-1 .876-2.212 0-4-1.565-4-3.5V3.5C0 1.566 1.791 0 4.003 0h7.994C14.207 0 16 1.565 16 3.5v3.063c0 1.934-1.787 3.5-4 3.5h-2c-.552 0-1-.392-1-.876 0-.483.448-.874 1-.874h2c1.108 0 2-.782 2-1.75V3.5c0-.966-.896-1.749-2.003-1.749H4.003C2.895 1.75 2 2.533 2 3.5v3.063zm18 .874c0-.967-.894-1.75-1.998-1.75-.552 0-1-.391-1-.875 0-.483.448-.875 1-.875 2.209 0 3.998 1.566 3.998 3.5V10.5c0 1.934-1.791 3.5-4.003 3.5h-7.994C7.793 14 6 12.435 6 10.5V7.438c0-1.932 1.79-3.5 3.997-3.5H12c.552 0 1 .392 1 .876 0 .483-.448.875-1 .875H9.997C8.895 5.688 8 6.47 8 7.437V10.5c0 .966.896 1.749 2.003 1.749h7.994c1.108 0 2.003-.783 2.003-1.75V7.438z"/></g></symbol><symbol id="more-vert" viewBox="0 0 4 16"><g fill="none" fill-rule="evenodd"><path d="M-10-4h24v24h-24z"/><path fill="#FFF" fill-rule="nonzero" d="M2 4c1.1 0 2-.9 2-2s-.9-2-2-2-2 .9-2 2 .9 2 2 2zm0 2C.9 6 0 6.9 0 8s.9 2 2 2 2-.9 2-2-.9-2-2-2zm0 6c-1.1 0-2 .9-2 2s.9 2 2 2 2-.9 2-2-.9-2-2-2z"/></g></symbol><symbol id="plus" viewBox="0 0 14 14"><g fill="none" fill-rule="evenodd"><path d="M-5-5h24v24H-5z"/><path fill="#000" d="M8 6V0H6v6H0v2h6v6h2V8h6V6H8z"/></g></symbol><symbol id="save-big" viewBox="0 0 16 20"><g fill="none" fill-rule="evenodd"><path d="M-4-2h24v24H-4z"/><path fill="#FFF" fill-rule="nonzero" d="M2.042 17.044l4.474-2.912a2.771 2.771 0 0 1 2.968 0L14 17.076V2.083H2.002l.04 14.96zM2.002 0h11.996C15.104 0 16 .935 16 2.083v16.663c0 1.15-.76 1.589-1.697.979l-5.879-3.827a.844.844 0 0 0-.848 0l-5.88 3.827C.76 20.335 0 19.894 0 18.746V2.083C0 .933.895 0 2.002 0z"/></g></symbol><symbol id="save-small" viewBox="0 0 11 14"><path fill="#BCBCBC" d="M1.376 0h8.248C10.384 0 11 .655 11 1.458v11.664c0 .806-.522 1.112-1.166.685L5.792 11.13a.571.571 0 0 0-.584 0l-4.042 2.678C.522 14.234 0 13.926 0 13.122V1.458C0 .653.615 0 1.376 0z"/></symbol><symbol id="search" viewBox="0 0 18 18"><g fill="none" fill-rule="evenodd"><path fill="#000" fill-rule="nonzero" d="M12.5 11h-.79l-.28-.27A6.471 6.471 0 0 0 13 6.5 6.5 6.5 0 1 0 6.5 13c1.61 0 3.09-.59 4.23-1.57l.27.28v.79l5 4.99L17.49 16l-4.99-5zm-6 0C4.01 11 2 8.99 2 6.5S4.01 2 6.5 2 11 4.01 11 6.5 8.99 11 6.5 11z"/><path d="M-3-3h24v24H-3z"/></g></symbol><symbol id="settings" viewBox="0 0 20 20"><g fill="none" fill-rule="evenodd"><path d="M-2-2h24v24H-2z"/><path fill="#000" fill-rule="nonzero" d="M17.43 10.98c.04-.32.07-.64.07-.98 0-.34-.03-.66-.07-.98l2.11-1.65c.19-.15.24-.42.12-.64l-2-3.46c-.12-.22-.39-.3-.61-.22l-2.49 1c-.52-.4-1.08-.73-1.69-.98L12.49.42A.488.488 0 0 0 12 0H8c-.25 0-.46.18-.49.42l-.38 2.65c-.61.25-1.17.59-1.69.98l-2.49-1c-.23-.09-.49 0-.61.22l-2 3.46c-.13.22-.07.49.12.64l2.11 1.65c-.04.32-.07.65-.07.98 0 .33.03.66.07.98L.46 12.63c-.19.15-.24.42-.12.64l2 3.46c.12.22.39.3.61.22l2.49-1c.52.4 1.08.73 1.69.98l.38 2.65c.03.24.24.42.49.42h4c.25 0 .46-.18.49-.42l.38-2.65c.61-.25 1.17-.59 1.69-.98l2.49 1c.23.09.49 0 .61-.22l2-3.46c.12-.22.07-.49-.12-.64l-2.11-1.65zM10 13.5c-1.93 0-3.5-1.57-3.5-3.5S8.07 6.5 10 6.5s3.5 1.57 3.5 3.5-1.57 3.5-3.5 3.5z"/></g></symbol><symbol id="share" viewBox="0 0 18 20"><g fill="none" fill-rule="evenodd" opacity=".3"><path d="M-3-2h24v24H-3z"/><path fill="#000" fill-rule="nonzero" d="M15 14.08c-.76 0-1.44.3-1.96.77L5.91 10.7c.05-.23.09-.46.09-.7 0-.24-.04-.47-.09-.7l7.05-4.11c.54.5 1.25.81 2.04.81 1.66 0 3-1.34 3-3s-1.34-3-3-3-3 1.34-3 3c0 .24.04.47.09.7L5.04 7.81C4.5 7.31 3.79 7 3 7c-1.66 0-3 1.34-3 3s1.34 3 3 3c.79 0 1.5-.31 2.04-.81l7.12 4.16c-.05.21-.08.43-.08.65 0 1.61 1.31 2.92 2.92 2.92 1.61 0 2.92-1.31 2.92-2.92 0-1.61-1.31-2.92-2.92-2.92z"/></g></symbol><symbol id="themes" viewBox="0 0 20 20"><g fill="none" fill-rule="evenodd"><path d="M-2-2h24v24H-2z"/><path fill="#FFF" fill-rule="nonzero" d="M.425 6.17L8.611.418c.795-.559 1.983-.559 2.778 0l8.186 5.75a1.002 1.002 0 0 1 0 1.638l-8.185 5.77c-.795.56-1.985.56-2.78 0L.424 7.806a1.001 1.001 0 0 1 .001-1.638zm16.842 6.87s-.043-.02-.316-.21c-.453-.316-.574-.966-.257-1.415.318-.45.92-.524 1.407-.212.29.186 1.285.868 1.475 1.028.563.475.567 1.23 0 1.625l-8.19 5.727c-.797.556-1.987.556-2.783 0L.41 13.856c-.567-.396-.53-1.18.001-1.625.197-.164 1.238-.862 1.52-1.058a1.005 1.005 0 0 1 1.393.242.989.989 0 0 1-.244 1.384l-.359.25 7.033 4.91c.105.073.373.072.478 0l7.034-4.918zM10.24 2.058c-.105-.074-.375-.074-.48 0L2.735 6.992l7.026 4.947c.105.074.373.074.478 0l7.018-4.946-7.017-4.936z"/></g></symbol></svg>