<?xml version="1.0" encoding="UTF-8"?><!DOCTYPE svg PUBLIC "-//W3C//DTD SVG 1.1//EN" "http://www.w3.org/Graphics/SVG/1.1/DTD/svg11.dtd"><svg xmlns="http://www.w3.org/2000/svg" xmlns:xlink="http://www.w3.org/1999/xlink"><defs><path id="a" d="M1 5h2a1 1 0 0 1 1 1v8a1 1 0 0 1-1 1H1a1 1 0 0 1-1-1V6a1 1 0 0 1 1-1zm3 8.94V6.162L7.754.451A1 1 0 0 1 8.59 0h.415c.527 0 .954.427.954.954v4.023h2.971a1 1 0 0 1 .995 1.102l-.72 6.965a1 1 0 0 1-.995.897H4z"/></defs><symbol id="account" viewBox="0 0 20 20"><g fill="none" fill-rule="evenodd"><path fill="currentColor" fill-rule="nonzero" d="M10 0C4.48 0 0 4.48 0 10s4.48 10 10 10 10-4.48 10-10S15.52 0 10 0zm0 3c1.66 0 3 1.34 3 3s-1.34 3-3 3-3-1.34-3-3 1.34-3 3-3zm0 14.2a7.2 7.2 0 0 1-6-3.22c.03-1.99 4-3.08 6-3.08 1.99 0 5.97 1.09 6 3.08a7.2 7.2 0 0 1-6 3.22z"/><path d="M-2-2h24v24H-2z"/></g></symbol><symbol id="arrow-back" viewBox="0 0 16 16"><g fill="none" fill-rule="evenodd"><path d="M-4-4h24v24H-4z"/><path fill="currentColor" d="M16 7H3.8l5.6-5.6L8 0 0 8l8 8 1.4-1.4L3.8 9H16z"/></g></symbol><symbol id="arrow-details" viewBox="0 0 8 13"><g fill="none" fill-rule="evenodd"><path fill="currentColor" fill-rule="nonzero" d="M.59 11.34l4.58-4.59L.59 2.16 2 .75l6 6-6 6z"/><path d="M-8-5h24v24H-8z"/></g></symbol><symbol id="arrow-more--popup" viewBox="0 0 12 8"><g fill="none" fill-rule="evenodd"><path d="M-6-8h24v24H-6z"/><path fill="currentColor" d="M10.6.6L6 5.2 1.4.6 0 2l6 6 6-6z"/></g></symbol><symbol id="close" viewBox="0 0 14 14"><g fill="none" fill-rule="evenodd"><path fill="currentColor" fill-rule="nonzero" d="M14 1.41L12.59 0 7 5.59 1.41 0 0 1.41 5.59 7 0 12.59 1.41 14 7 8.41 12.59 14 14 12.59 8.41 7z"/><path d="M-5-5h24v24H-5z"/></g></symbol><symbol id="double-links" viewBox="0 0 145 145"><g fill="none" fill-rule="evenodd" transform="translate(0 1)"><path d="M0 0h147v145H0z"/><g stroke="currentColor" stroke-linecap="round" stroke-width="2"><path d="M62.799 65.151l2.843-2.843a5 5 0 0 0 0-7.071l-5.657-5.657a5 5 0 0 0-7.07 0L38.771 63.722a5 5 0 0 0 0 7.07l5.657 5.658a5 5 0 0 0 7.071 0l5.61-5.61"/><path d="M40.201 77.849l-2.843 2.843a5 5 0 0 0 0 7.071l5.657 5.657a5 5 0 0 0 7.07 0l14.143-14.142a5 5 0 0 0 0-7.07L58.57 66.55a5 5 0 0 0-7.071 0l-5.61 5.61"/></g><g stroke="currentColor" stroke-linecap="round" stroke-width="2"><path d="M101.799 65.151l2.843-2.843a5 5 0 0 0 0-7.071l-5.657-5.657a5 5 0 0 0-7.07 0L77.771 63.722a5 5 0 0 0 0 7.07l5.657 5.658a5 5 0 0 0 7.071 0l5.61-5.61"/><path d="M79.201 77.849l-2.843 2.843a5 5 0 0 0 0 7.071l5.657 5.657a5 5 0 0 0 7.07 0l14.143-14.142a5 5 0 0 0 0-7.07L97.57 66.55a5 5 0 0 0-7.071 0l-5.61 5.61"/></g><circle cx="72.5" cy="71.5" r="71.5" stroke="currentColor" stroke-width="2"/></g></symbol><symbol id="dropdown" viewBox="0 0 10 5"><g fill="none" fill-rule="evenodd"><path fill="currentColor" fill-rule="nonzero" d="M0 0l5 5 5-5z"/><path d="M-7-10h24v24H-7z"/></g></symbol><symbol id="edit" viewBox="0 0 16 16"><g fill="none" fill-rule="evenodd"><path fill="currentColor" fill-rule="nonzero" d="M.5 12.375V15.5h3.125l9.217-9.217-3.125-3.125L.5 12.375zm14.758-8.508a.83.83 0 0 0 0-1.175l-1.95-1.95a.83.83 0 0 0-1.175 0l-1.525 1.525 3.125 3.125 1.525-1.525z"/><path d="M-2-2h20v20H-2z"/></g></symbol><symbol id="filter" viewBox="0 0 20 18"><g fill="none" fill-rule="evenodd"><path d="M-2-3h24v24H-2z"/><path fill="currentColor" fill-rule="nonzero" d="M10.5 13v-1.002A2 2 0 0 1 12.498 10h2.004c1.104 0 1.998.894 1.998 1.998V13h2.501c.552 0 .999.444.999 1 0 .552-.446 1-.999 1H16.5v1.002A2 2 0 0 1 14.502 18h-2.004a1.998 1.998 0 0 1-1.998-1.998V15H.999A.997.997 0 0 1 0 14c0-.552.446-1 .999-1H10.5zm-7-11.002A2 2 0 0 1 5.498 0h2.004C8.606 0 9.5.894 9.5 1.998V3h9.501c.552 0 .999.444.999 1 0 .552-.446 1-.999 1H9.5v1.002A2 2 0 0 1 7.502 8H5.498A1.998 1.998 0 0 1 3.5 6.002V5H.999A.997.997 0 0 1 0 4c0-.552.446-1 .999-1H3.5V1.998zM5.5 2v4h2V2h-2zm7 10v4h2v-4h-2z"/></g></symbol><symbol id="flash" viewBox="0 0 16 20"><g fill="none" fill-rule="evenodd"><path d="M-4-2h24v24H-4z"/><path fill="currentColor" fill-rule="nonzero" d="M9 4l-5.688 6.489h2.766c.53 0 .922.439.922.976v4.74l5.704-6.694H9.926c-.533 0-.927-.44-.926-.977V4zm1.886 3.556h4.07c1.063 0 1.365.662.67 1.483L6.995 19.251c-1.04 1.228-1.881.915-1.881-.71v-6.097h-4.07c-1.063 0-1.365-.662-.67-1.483L9.005.749c1.04-1.228 1.881-.915 1.881.71v6.097z"/></g></symbol><symbol id="iceberg" viewBox="0 0 86 90"><g fill="none" fill-rule="evenodd"><path fill="#07F" d="M8.39 29.326H43V90L0 37.695z"/><path fill="#0065D9" d="M77.61 29.326H43V90l43-52.305z"/><path fill="#5FCEF9" d="M8 30h70L47.728 0 34.659 14.396l-8.363-4.798z"/></g></symbol><symbol id="like-big" viewBox="0 0 22 21"><g fill="none" fill-rule="evenodd"><path d="M-1-1h24v24H-1z"/><path stroke="currentColor" stroke-width="2" d="M2 8h4a1 1 0 0 1 1 1v10a1 1 0 0 1-1 1H2a1 1 0 0 1-1-1V9a1 1 0 0 1 1-1zm5 11l.133-8.362 5.1-9.126A1 1 0 0 1 13.107 1h.734a1 1 0 0 1 1 1v5.536h4.979a1 1 0 0 1 .986 1.165l-1.585 9.464a1 1 0 0 1-.986.835H7z"/></g></symbol><symbol id="like-small" viewBox="0 0 14 15"><g fill="none" fill-rule="evenodd"><use fill="currentColor" xlink:href="#a"/><path stroke="currentColor" stroke-width="2" d="M1 6v8h2V6H1zm4 6.94h7.21l.72-6.963H8.96V1h-.37L5 6.46v6.48z"/></g></symbol><symbol id="link" viewBox="0 0 22 14"><g fill="none" fill-rule="evenodd"><path d="M-1-5h24v24H-1z"/><path fill="currentColor" fill-rule="nonzero" d="M2 6.563c0 .968.892 1.75 2 1.75.552 0 1 .391 1 .874 0 .484-.448.876-1 .876-2.212 0-4-1.565-4-3.5V3.5C0 1.566 1.791 0 4.003 0h7.994C14.207 0 16 1.565 16 3.5v3.063c0 1.934-1.787 3.5-4 3.5h-2c-.552 0-1-.392-1-.876 0-.483.448-.874 1-.874h2c1.108 0 2-.782 2-1.75V3.5c0-.966-.896-1.749-2.003-1.749H4.003C2.895 1.75 2 2.533 2 3.5v3.063zm18 .874c0-.967-.894-1.75-1.998-1.75-.552 0-1-.391-1-.875 0-.483.448-.875 1-.875 2.209 0 3.998 1.566 3.998 3.5V10.5c0 1.934-1.791 3.5-4.003 3.5h-7.994C7.793 14 6 12.435 6 10.5V7.438c0-1.932 1.79-3.5 3.997-3.5H12c.552 0 1 .392 1 .876 0 .483-.448.875-1 .875H9.997C8.895 5.688 8 6.47 8 7.437V10.5c0 .966.896 1.749 2.003 1.749h7.994c1.108 0 2.003-.783 2.003-1.75V7.438z"/></g></symbol><symbol id="lock" viewBox="0 0 16 19"><g fill="none" fill-rule="evenodd" transform="translate(-4 -2)"><path d="M0 0h24v24H0z"/><rect width="14" height="14" x="5" y="3" stroke="currentColor" stroke-width="2" rx="2"/><rect width="11" height="1" x="6.5" y="19.5" stroke="currentColor" rx=".5"/></g></symbol><symbol id="more-vert" viewBox="0 0 4 16"><g fill="none" fill-rule="evenodd"><path d="M-10-4h24v24h-24z"/><path fill="currentColor" fill-rule="nonzero" d="M2 4c1.1 0 2-.9 2-2s-.9-2-2-2-2 .9-2 2 .9 2 2 2zm0 2C.9 6 0 6.9 0 8s.9 2 2 2 2-.9 2-2-.9-2-2-2zm0 6c-1.1 0-2 .9-2 2s.9 2 2 2 2-.9 2-2-.9-2-2-2z"/></g></symbol><symbol id="picture" viewBox="0 0 18 18"><g fill="none" fill-rule="evenodd"><path fill="currentColor" fill-rule="nonzero" d="M18 16V2c0-1.1-.9-2-2-2H2C.9 0 0 .9 0 2v14c0 1.1.9 2 2 2h14c1.1 0 2-.9 2-2zM5.5 10.5L8 13.51 11.5 9l4.5 6H2l3.5-4.5z"/><path d="M-3-3h24v24H-3z"/></g></symbol><symbol id="plus" viewBox="0 0 14 14"><g fill="none" fill-rule="evenodd"><path d="M-5-5h24v24H-5z"/><path fill="currentColor" d="M8 6V0H6v6H0v2h6v6h2V8h6V6H8z"/></g></symbol><symbol id="question" viewBox="0 0 20 20"><g fill="none"><path d="M-2-2h24v24H-2z"/><path fill="currentColor" d="M10 20C4.477 20 0 15.523 0 10S4.477 0 10 0s10 4.477 10 10-4.477 10-10 10zm0-2a8 8 0 1 0 0-16 8 8 0 0 0 0 16zm0-12a2 2 0 0 0-2 2 1 1 0 1 1-2 0 4 4 0 0 1 4-4c2.232 0 4.006 1.605 4.006 3.798 0 1.198-.42 1.932-1.319 2.705-.092.08-1.131.924-1.17.955-.417.333-.504.483-.504.981a1 1 0 1 1-2 0c0-1.17.4-1.86 1.255-2.543-.034.026 1.04-.844 1.115-.909.494-.425.623-.65.623-1.189C12.006 6.757 11.17 6 10 6zm0 10a1 1 0 1 1 0-2 1 1 0 0 1 0 2z"/></g></symbol><symbol id="save-big" viewBox="0 0 16 20"><g fill="none" fill-rule="evenodd"><path d="M-4-2h24v24H-4z"/><path fill="currentColor" fill-rule="nonzero" d="M2.042 17.044l4.474-2.912a2.771 2.771 0 0 1 2.968 0L14 17.076V2.083H2.002l.04 14.96zM2.002 0h11.996C15.104 0 16 .935 16 2.083v16.663c0 1.15-.76 1.589-1.697.979l-5.879-3.827a.844.844 0 0 0-.848 0l-5.88 3.827C.76 20.335 0 19.894 0 18.746V2.083C0 .933.895 0 2.002 0z"/></g></symbol><symbol id="save-small" viewBox="0 0 11 14"><path fill="currentColor" d="M1.376 0h8.248C10.384 0 11 .655 11 1.458v11.664c0 .806-.522 1.112-1.166.685L5.792 11.13a.571.571 0 0 0-.584 0l-4.042 2.678C.522 14.234 0 13.926 0 13.122V1.458C0 .653.615 0 1.376 0z"/></symbol><symbol id="search" viewBox="0 0 24 24"><g fill="none" fill-rule="evenodd"><path fill="currentColor" fill-rule="nonzero" d="M15.5 14h-.79l-.28-.27A6.471 6.471 0 0 0 16 9.5 6.5 6.5 0 1 0 9.5 16c1.61 0 3.09-.59 4.23-1.57l.27.28v.79l5 4.99L20.49 19l-4.99-5zm-6 0C7.01 14 5 11.99 5 9.5S7.01 5 9.5 5 14 7.01 14 9.5 11.99 14 9.5 14z"/><path d="M0 0h24v24H0z"/></g></symbol><symbol id="settings" viewBox="0 0 20 20"><g fill="none" fill-rule="evenodd"><path d="M-2-2h24v24H-2z"/><path fill="currentColor" fill-rule="nonzero" d="M17.43 10.98c.04-.32.07-.64.07-.98 0-.34-.03-.66-.07-.98l2.11-1.65c.19-.15.24-.42.12-.64l-2-3.46c-.12-.22-.39-.3-.61-.22l-2.49 1c-.52-.4-1.08-.73-1.69-.98L12.49.42A.488.488 0 0 0 12 0H8c-.25 0-.46.18-.49.42l-.38 2.65c-.61.25-1.17.59-1.69.98l-2.49-1c-.23-.09-.49 0-.61.22l-2 3.46c-.13.22-.07.49.12.64l2.11 1.65c-.04.32-.07.65-.07.98 0 .33.03.66.07.98L.46 12.63c-.19.15-.24.42-.12.64l2 3.46c.12.22.39.3.61.22l2.49-1c.52.4 1.08.73 1.69.98l.38 2.65c.03.24.24.42.49.42h4c.25 0 .46-.18.49-.42l.38-2.65c.61-.25 1.17-.59 1.69-.98l2.49 1c.23.09.49 0 .61-.22l2-3.46c.12-.22.07-.49-.12-.64l-2.11-1.65zM10 13.5c-1.93 0-3.5-1.57-3.5-3.5S8.07 6.5 10 6.5s3.5 1.57 3.5 3.5-1.57 3.5-3.5 3.5z"/></g></symbol><symbol id="share" viewBox="0 0 18 20"><g fill="none" fill-rule="evenodd"><path d="M-3-2h24v24H-3z"/><path fill="currentColor" fill-rule="nonzero" d="M15 14.08c-.76 0-1.44.3-1.96.77L5.91 10.7c.05-.23.09-.46.09-.7 0-.24-.04-.47-.09-.7l7.05-4.11c.54.5 1.25.81 2.04.81 1.66 0 3-1.34 3-3s-1.34-3-3-3-3 1.34-3 3c0 .24.04.47.09.7L5.04 7.81C4.5 7.31 3.79 7 3 7c-1.66 0-3 1.34-3 3s1.34 3 3 3c.79 0 1.5-.31 2.04-.81l7.12 4.16c-.05.21-.08.43-.08.65 0 1.61 1.31 2.92 2.92 2.92 1.61 0 2.92-1.31 2.92-2.92 0-1.61-1.31-2.92-2.92-2.92z"/></g></symbol><symbol id="themes" viewBox="0 0 20 20"><g fill="none" fill-rule="evenodd"><path d="M-2-2h24v24H-2z"/><path fill="currentColor" fill-rule="nonzero" d="M.425 6.17L8.611.418c.795-.559 1.983-.559 2.778 0l8.186 5.75a1.002 1.002 0 0 1 0 1.638l-8.185 5.77c-.795.56-1.985.56-2.78 0L.424 7.806a1.001 1.001 0 0 1 .001-1.638zm16.842 6.87s-.043-.02-.316-.21c-.453-.316-.574-.966-.257-1.415.318-.45.92-.524 1.407-.212.29.186 1.285.868 1.475 1.028.563.475.567 1.23 0 1.625l-8.19 5.727c-.797.556-1.987.556-2.783 0L.41 13.856c-.567-.396-.53-1.18.001-1.625.197-.164 1.238-.862 1.52-1.058a1.005 1.005 0 0 1 1.393.242.989.989 0 0 1-.244 1.384l-.359.25 7.033 4.91c.105.073.373.072.478 0l7.034-4.918zM10.24 2.058c-.105-.074-.375-.074-.48 0L2.735 6.992l7.026 4.947c.105.074.373.074.478 0l7.018-4.946-7.017-4.936z"/></g></symbol></svg>